<?xml version="1.0" encoding="utf-8"?>
<!-- Generator: Adobe Illustrator 16.0.0, SVG Export Plug-In . SVG Version: 6.00 Build 0)  -->
<!DOCTYPE svg PUBLIC "-//W3C//DTD SVG 1.1//EN" "http://www.w3.org/Graphics/SVG/1.1/DTD/svg11.dtd">
<svg version="1.1" xmlns="http://www.w3.org/2000/svg" xmlns:xlink="http://www.w3.org/1999/xlink" x="0px" y="0px" width="512px"
	 height="512px" viewBox="0 0 512 512" enable-background="new 0 0 512 512" xml:space="preserve">
<g id="Layer_1" display="none">
	<g display="inline">
		<defs>
			<rect id="SVGID_1_" width="512" height="512"/>
		</defs>
		<clipPath id="SVGID_2_">
			<use xlink:href="#SVGID_1_"  overflow="visible"/>
		</clipPath>
		<g clip-path="url(#SVGID_2_)">
			<rect x="439" opacity="0.4" fill="#FF5050" enable-background="new    " width="73" height="512"/>
			<rect opacity="0.4" fill="#FF5050" enable-background="new    " width="73" height="512"/>
			<rect x="73" opacity="0.1" fill="#FF5050" enable-background="new    " width="73" height="512"/>
			<rect y="73" opacity="0.1" fill="#FF5050" enable-background="new    " width="512" height="73"/>
			<rect x="366" opacity="0.1" fill="#FF5050" enable-background="new    " width="73" height="512"/>
			<rect y="366" opacity="0.1" fill="#FF5050" enable-background="new    " width="512" height="73"/>
			<rect x="-0.5" opacity="0.4" fill="#FF5050" enable-background="new    " width="512" height="73"/>
			<rect y="439" opacity="0.4" fill="#FF5050" enable-background="new    " width="512" height="73"/>
			<path fill="none" stroke="#FF4D4D" stroke-width="0.25" d="M73,0v512"/>
			<path fill="none" stroke="#FF4D4D" stroke-width="0.25" d="M146,0v512"/>
			<path fill="none" stroke="#FF4D4D" stroke-width="0.25" d="M219,0v512"/>
			<path fill="none" stroke="#FF4D4D" stroke-width="0.25" d="M292,0v512"/>
			<path fill="none" stroke="#FF4D4D" stroke-width="0.25" d="M366,0v512"/>
			<path fill="none" stroke="#FF4D4D" stroke-width="0.25" d="M439,0v512"/>
			<path fill="none" stroke="#FF4D4D" stroke-width="0.25" d="M512,73H0"/>
			<path fill="none" stroke="#FF4D4D" stroke-width="0.25" d="M512,146H0"/>
			<path fill="none" stroke="#FF4D4D" stroke-width="0.25" d="M512,219H0"/>
			<path fill="none" stroke="#FF4D4D" stroke-width="0.25" d="M512,292H0"/>
			<path fill="none" stroke="#FF4D4D" stroke-width="0.25" d="M512,366H0"/>
			<path fill="none" stroke="#FF4D4D" stroke-width="0.25" d="M512,439H0"/>
		</g>
	</g>
</g>
<g id="Layer_2">
	<g>
		<polygon fill="#3EB1C8" points="275.776,306.831 275.776,258.524 315.5,245.396 385.856,269.466 		"/>
		<polygon fill="#D8D2C4" points="346.134,208.029 275.776,232.268 315.5,245.396 385.856,221.158 		"/>
		<polygon fill="#4F5858" points="315.5,245.396 385.856,221.158 385.856,269.466 		"/>
		<polygon fill="#FFC72C" points="385.856,146.594 385.856,194.901 346.134,208.029 275.776,183.96 		"/>
		<polygon fill="#EF3340" points="346.134,208.029 275.776,232.268 275.776,183.96 		"/>
		<g>
			<g>
				<g>
					<g>
						<path fill="#4F5858" d="M131.866,322.485c-0.842-6.228-6.901-10.94-13.634-10.94c-12.288,0-17,10.437-17,21.377
							c0,10.434,4.712,20.87,17,20.87c8.416,0,13.129-5.723,14.139-13.971h13.297c-1.346,15.486-12.119,25.585-27.436,25.585
							c-19.188-0.168-30.634-14.476-30.634-32.484c0-18.516,11.445-32.99,30.634-32.99c13.802,0,25.248,8.078,26.931,22.386h-13.297
							V322.485z"/>
						<path fill="#4F5858" d="M150.549,318.614h11.782v8.415h0.169c2.356-5.723,8.416-9.594,14.475-9.594
							c0.841,0,1.851,0.168,2.693,0.506v11.613c-1.178-0.337-3.03-0.506-4.376-0.506c-9.089,0-12.287,6.564-12.287,14.477v20.366
							h-12.456V318.614z"/>
						<path fill="#4F5858" d="M203.232,317.436c14.307,0,23.396,9.426,23.396,23.901c0,14.307-9.257,23.733-23.396,23.733
							c-14.139,0-23.396-9.427-23.396-23.733C180.004,326.861,189.094,317.436,203.232,317.436z M203.232,355.644
							c8.416,0,10.941-7.237,10.941-14.476c0-7.236-2.525-14.475-10.941-14.475s-10.94,7.238-10.94,14.475
							C192.292,348.406,194.985,355.644,203.232,355.644z"/>
						<path fill="#4F5858" d="M241.104,349.08c0.168,5.386,4.713,7.574,9.594,7.574c3.535,0,8.08-1.347,8.08-5.724
							c0-3.702-5.218-5.049-14.139-7.069c-7.238-1.515-14.307-4.04-14.307-12.118c0-11.614,9.931-14.476,19.693-14.476
							c9.931,0,19.02,3.365,19.861,14.476h-11.782c-0.336-4.882-4.039-6.06-8.416-6.06c-2.861,0-6.901,0.505-6.901,4.208
							c0,4.376,7.069,5.05,14.14,6.732c7.237,1.684,14.306,4.208,14.306,12.624c0,11.95-10.267,15.652-20.703,15.652
							c-10.436,0-20.703-3.87-21.208-15.988h11.782V349.08z"/>
						<path fill="#4F5858" d="M286.381,349.08c0.169,5.386,4.714,7.574,9.595,7.574c3.535,0,8.079-1.347,8.079-5.724
							c0-3.702-5.218-5.049-14.138-7.069c-7.238-1.515-14.309-4.04-14.309-12.118c0-11.614,9.933-14.476,19.694-14.476
							c9.93,0,19.02,3.365,19.86,14.476h-11.782c-0.336-4.882-4.039-6.06-8.416-6.06c-2.861,0-6.9,0.505-6.9,4.208
							c0,4.376,7.07,5.05,14.139,6.732c7.238,1.684,14.307,4.208,14.307,12.624c0,11.95-10.267,15.652-20.702,15.652
							c-10.437,0-20.703-3.87-21.209-15.988h11.782V349.08z"/>
						<path fill="#4F5858" d="M320.55,318.614h11.782v8.415h0.168c2.357-5.723,8.416-9.594,14.476-9.594
							c0.842,0,1.853,0.168,2.692,0.506v11.613c-1.178-0.337-3.029-0.506-4.377-0.506c-9.088,0-12.286,6.564-12.286,14.477v20.366
							H320.55V318.614L320.55,318.614z"/>
						<path fill="#4F5858" d="M363.134,344.198c0.337,7.911,4.208,11.445,11.108,11.445c5.05,0,8.922-3.029,9.763-5.892h10.941
							c-3.535,10.604-10.941,15.148-21.208,15.148c-14.308,0-23.061-9.762-23.061-23.732c0-13.465,9.426-23.9,23.061-23.9
							c15.316,0,22.891,12.96,21.881,26.762h-32.485V344.198z M383.332,336.456c-1.178-6.229-3.871-9.595-9.931-9.595
							c-7.911,0-10.099,6.061-10.268,9.595H383.332z"/>
						<path fill="#4F5858" d="M402.689,327.029h-7.407v-8.247h7.407v-3.535c0-7.91,5.049-13.802,15.147-13.802
							c2.188,0,4.376,0.338,6.564,0.338v9.256c-1.515-0.168-3.029-0.336-4.545-0.336c-3.365,0-4.714,1.347-4.714,5.218v2.693h8.585
							v8.247h-8.585v36.861h-12.453V327.029z"/>
					</g>
				</g>
			</g>
		</g>
	</g>
</g>
</svg>
