<svg width="400" height="400" viewBox="0 0 400 400" fill="none" xmlns="http://www.w3.org/2000/svg">
<rect width="400" height="400" fill="white"/>
<path d="M84 83.9316V253.749C84 253.749 149.285 246.151 149.285 309.922V149.211C149.285 88.4821 84 83.9316 84 83.9316Z" fill="#231F1F"/>
<path d="M114.578 72V221.422C114.578 221.422 150.619 228.376 150.619 292.141C150.619 355.912 150.8 173.508 150.8 139.344C150.806 78.621 114.578 72 114.578 72Z" fill="#AAAAAA"/>
<path d="M151.789 147.691V302.23C151.789 302.23 183.133 214.438 314.897 327.544C314.897 286.555 315.148 183.176 315.148 149.007C184.905 54.1198 151.789 147.691 151.789 147.691Z" fill="#3978AD"/>
<path d="M164.206 263.364H193.404L202.838 198.377H203.136L229.047 263.364H240.733L267.837 198.377H268.135L276.37 263.364H305.744L288.653 150.486H259.455L235.188 210.812L212.272 150.486H183.373L164.206 263.364Z" fill="white"/>
</svg>
